<svg aria-hidden="true" style="width:0;height:0;position:absolute;overflow:hidden" xmlns="http://www.w3.org/2000/svg"><defs><symbol id="whatsapp" viewBox="0 0 32 32"><path fill="#25d366" style="fill:var(--color1,#25d366)" d="M23.331 19.176c-.401-.2-2.356-1.156-2.72-1.288-.364-.135-.631-.2-.897.2-.263.393-1.028 1.285-1.259 1.549-.233.26-.465.28-.861.1-.4-.2-1.684-.62-3.204-1.98-1.184-1.06-1.979-2.36-2.213-2.76-.232-.4-.025-.62.173-.82.181-.18.401-.46.601-.697.195-.241.259-.401.396-.661.133-.28.065-.5-.033-.699-.1-.2-.896-2.16-1.229-2.941-.32-.779-.649-.68-.896-.68-.229-.02-.495-.02-.761-.02s-.697.099-1.063.479c-.364.4-1.393 1.36-1.393 3.3s1.427 3.82 1.625 4.1c.199.26 2.807 4.26 6.8 5.98.952.4 1.693.64 2.272.839.952.303 1.82.26 2.507.161.765-.121 2.356-.961 2.688-1.901.34-.94.34-1.72.24-1.9-.099-.18-.36-.28-.76-.46zM16.081 29h-.021c-2.36 0-4.699-.64-6.74-1.84l-.48-.285-5 1.3 1.34-4.86-.319-.5a13.156 13.156 0 0 1-2.021-7.013c0-7.26 5.94-13.18 13.256-13.18 3.539 0 6.86 1.38 9.361 3.88 2.5 2.479 3.879 5.8 3.879 9.32-.005 7.259-5.947 13.18-13.247 13.18zM27.36 4.599C24.32 1.66 20.32 0 16.06 0 7.284 0 .139 7.112.135 15.857c0 2.795.732 5.52 2.127 7.927L.001 32l8.447-2.203a16.087 16.087 0 0 0 7.613 1.929h.008c8.78 0 15.928-7.115 15.932-15.861 0-4.235-1.653-8.22-4.66-11.215z"/></symbol><symbol id="facebook" viewBox="0 0 32 32"><path fill="#1877f2" style="fill:var(--color2,#1877f2)" d="M31.997 15.999C31.997 7.163 24.834 0 15.998 0S-.001 7.163-.001 15.999c0 7.985 5.851 14.604 13.499 15.804v-11.18H9.436v-4.625h4.062v-3.525c0-4.01 2.389-6.225 6.043-6.225 1.75 0 3.581.313 3.581.313v3.937h-2.017c-1.987 0-2.607 1.233-2.607 2.498v3.001h4.437l-.709 4.625h-3.728v11.18c7.649-1.2 13.499-7.819 13.499-15.804z"/></symbol><symbol id="instagram" viewBox="0 0 32 32"><path fill="#e4405f" style="fill:var(--color3,#e4405f)" d="M16 0c-4.347 0-4.889.02-6.596.096C7.7.176 6.54.444 5.52.84c-1.052.408-1.945.956-2.835 1.845S1.246 4.466.84 5.52C.444 6.54.175 7.7.096 9.404.016 11.111 0 11.653 0 16s.02 4.889.096 6.596c.08 1.703.348 2.864.744 3.884a7.854 7.854 0 0 0 1.845 2.835A7.807 7.807 0 0 0 5.52 31.16c1.021.395 2.181.665 3.884.744 1.707.08 2.249.096 6.596.096s4.889-.02 6.596-.096c1.703-.08 2.864-.349 3.884-.744a7.867 7.867 0 0 0 2.835-1.845 7.799 7.799 0 0 0 1.845-2.835c.395-1.02.665-2.181.744-3.884.08-1.707.096-2.249.096-6.596s-.02-4.889-.096-6.596c-.08-1.703-.349-2.865-.744-3.884a7.859 7.859 0 0 0-1.845-2.835A7.786 7.786 0 0 0 26.48.84C25.46.444 24.299.175 22.596.096 20.889.016 20.347 0 16 0zm0 2.88c4.271 0 4.78.021 6.467.095 1.56.073 2.407.332 2.969.553.749.289 1.28.636 1.843 1.195a4.95 4.95 0 0 1 1.195 1.841c.219.563.48 1.409.551 2.969.076 1.688.093 2.195.093 6.467s-.02 4.78-.099 6.467c-.081 1.56-.341 2.407-.561 2.969-.299.749-.639 1.28-1.199 1.843a5.002 5.002 0 0 1-1.84 1.195c-.56.219-1.42.48-2.98.551-1.699.076-2.199.093-6.479.093-4.281 0-4.781-.02-6.479-.099-1.561-.081-2.421-.341-2.981-.561-.759-.299-1.28-.639-1.839-1.199a4.867 4.867 0 0 1-1.2-1.84c-.22-.56-.479-1.42-.56-2.98-.06-1.68-.081-2.199-.081-6.459 0-4.261.021-4.781.081-6.481.081-1.56.34-2.419.56-2.979.28-.76.639-1.28 1.2-1.841.559-.559 1.08-.919 1.839-1.197.56-.221 1.401-.481 2.961-.561 1.7-.06 2.2-.08 6.479-.08zm0 4.904A8.215 8.215 0 0 0 7.784 16c0 4.54 3.68 8.216 8.216 8.216 4.54 0 8.216-3.68 8.216-8.216 0-4.54-3.68-8.216-8.216-8.216zm0 13.549c-2.947 0-5.333-2.387-5.333-5.333s2.387-5.333 5.333-5.333 5.333 2.387 5.333 5.333-2.387 5.333-5.333 5.333zM26.461 7.46a1.921 1.921 0 0 1-3.84 0 1.92 1.92 0 0 1 3.84 0z"/></symbol><symbol id="whatsapp1" viewBox="0 0 32 32"><path d="M27.281 4.65C24.287 1.65 20.306 0 16.062 0 7.324 0 .212 7.112.212 15.856c0 2.794.731 5.525 2.119 7.925L.081 32l8.406-2.206a15.858 15.858 0 0 0 7.575 1.931h.006c8.738 0 15.856-7.113 15.856-15.856 0-4.238-1.65-8.219-4.644-11.219zm-11.212 24.4a13.17 13.17 0 0 1-6.713-1.837l-.481-.288-4.987 1.306 1.331-4.863-.313-.5a13.086 13.086 0 0 1-2.019-7.012c0-7.269 5.912-13.181 13.188-13.181 3.519 0 6.831 1.375 9.319 3.862a13.108 13.108 0 0 1 3.856 9.325c-.006 7.275-5.919 13.188-13.181 13.188zm7.225-9.875c-.394-.2-2.344-1.156-2.706-1.288s-.625-.2-.894.2c-.262.394-1.025 1.288-1.256 1.556-.231.262-.462.3-.856.1s-1.675-.619-3.188-1.969c-1.175-1.05-1.975-2.35-2.206-2.744s-.025-.613.175-.806c.181-.175.394-.463.594-.694s.262-.394.394-.662c.131-.262.069-.494-.031-.694s-.894-2.15-1.219-2.944c-.319-.775-.65-.669-.894-.681-.231-.012-.494-.012-.756-.012s-.694.1-1.056.494c-.363.394-1.387 1.356-1.387 3.306s1.419 3.831 1.619 4.1c.2.262 2.794 4.269 6.769 5.981.944.406 1.681.65 2.256.837.95.3 1.813.256 2.494.156.762-.113 2.344-.956 2.675-1.881s.331-1.719.231-1.881c-.094-.175-.356-.275-.756-.475z"/></symbol><symbol id="facebook1" viewBox="0 0 32 32"><path d="M19 6h5V0h-5c-3.86 0-7 3.14-7 7v3H8v6h4v16h6V16h5l1-6h-6V7c0-.542.458-1 1-1z"/></symbol><symbol id="instagram1" viewBox="0 0 32 32"><path d="M16 2.881c4.275 0 4.781.019 6.462.094 1.563.069 2.406.331 2.969.55a4.952 4.952 0 0 1 1.837 1.194 5.015 5.015 0 0 1 1.2 1.838c.219.563.481 1.412.55 2.969.075 1.688.094 2.194.094 6.463s-.019 4.781-.094 6.463c-.069 1.563-.331 2.406-.55 2.969a4.94 4.94 0 0 1-1.194 1.837 5.02 5.02 0 0 1-1.837 1.2c-.563.219-1.413.481-2.969.55-1.688.075-2.194.094-6.463.094s-4.781-.019-6.463-.094c-1.563-.069-2.406-.331-2.969-.55a4.952 4.952 0 0 1-1.838-1.194 5.02 5.02 0 0 1-1.2-1.837c-.219-.563-.481-1.413-.55-2.969-.075-1.688-.094-2.194-.094-6.463s.019-4.781.094-6.463c.069-1.563.331-2.406.55-2.969a4.964 4.964 0 0 1 1.194-1.838 5.015 5.015 0 0 1 1.838-1.2c.563-.219 1.412-.481 2.969-.55 1.681-.075 2.188-.094 6.463-.094zM16 0c-4.344 0-4.887.019-6.594.094-1.7.075-2.869.35-3.881.744-1.056.412-1.95.956-2.837 1.85a7.833 7.833 0 0 0-1.85 2.831C.444 6.538.169 7.7.094 9.4.019 11.113 0 11.656 0 16s.019 4.887.094 6.594c.075 1.7.35 2.869.744 3.881.413 1.056.956 1.95 1.85 2.837a7.82 7.82 0 0 0 2.831 1.844c1.019.394 2.181.669 3.881.744 1.706.075 2.25.094 6.594.094s4.888-.019 6.594-.094c1.7-.075 2.869-.35 3.881-.744 1.05-.406 1.944-.956 2.831-1.844s1.438-1.781 1.844-2.831c.394-1.019.669-2.181.744-3.881.075-1.706.094-2.25.094-6.594s-.019-4.887-.094-6.594c-.075-1.7-.35-2.869-.744-3.881a7.506 7.506 0 0 0-1.831-2.844A7.82 7.82 0 0 0 26.482.843C25.463.449 24.301.174 22.601.099c-1.712-.081-2.256-.1-6.6-.1z"/><path d="M16 7.781c-4.537 0-8.219 3.681-8.219 8.219s3.681 8.219 8.219 8.219 8.219-3.681 8.219-8.219A8.221 8.221 0 0 0 16 7.781zm0 13.55a5.331 5.331 0 1 1 0-10.663 5.331 5.331 0 0 1 0 10.663zM26.462 7.456a1.919 1.919 0 1 1-3.838 0 1.919 1.919 0 0 1 3.838 0z"/></symbol><symbol id="cross" viewBox="0 0 32 32"><path d="M31.708 25.708 22 16l9.708-9.708a1 1 0 0 0 0-1.414L27.122.292a1 1 0 0 0-1.414-.001L16 9.999 6.292.291a.998.998 0 0 0-1.414.001L.292 4.878a1 1 0 0 0 0 1.414L10 16 .292 25.708a.999.999 0 0 0 0 1.414l4.586 4.586a1 1 0 0 0 1.414 0L16 22l9.708 9.708a1 1 0 0 0 1.414 0l4.586-4.586a.999.999 0 0 0 0-1.414z"/></symbol></defs></svg>